<mxfile host="app.diagrams.net" modified="2024-04-30T01:46:01.534Z" agent="Mozilla/5.0 (Windows NT 10.0; Win64; x64) AppleWebKit/537.36 (KHTML, like Gecko) Chrome/124.0.0.0 Safari/537.36" version="24.3.1" etag="o4uTH5Pyz9-RFynlRYAg" type="github">
  <diagram name="Seite-1" id="NgMxiIkvD20ecEq8syt9">
    <mxGraphModel>
      <root>
        <mxCell id="0" />
        <mxCell id="1" parent="0" />
      </root>
    </mxGraphModel>
  </diagram>
</mxfile>
